<?xml version="1.0" encoding="UTF-8"?>
<svg xmlns="http://www.w3.org/2000/svg" viewBox="0 0 512 512">
  <path d="M256 192l-39.5-39.5c4.9-12.6 7.5-26.2 7.5-40.5C224 50.1 173.9 0 112 0S0 50.1 0 112s50.1 112 112 112c14.3 0 27.9-2.7 40.5-7.5L192 256l-39.5 39.5c-12.6-4.9-26.2-7.5-40.5-7.5C50.1 288 0 338.1 0 400s50.1 112 112 112s112-50.1 112-112c0-14.3-2.7-27.9-7.5-40.5L256 320l39.5 39.5c-4.9 12.6-7.5 26.2-7.5 40.5c0 61.9 50.1 112 112 112s112-50.1 112-112s-50.1-112-112-112c-14.3 0-27.9 2.7-40.5 7.5L320 256l39.5-39.5c12.6 4.9 26.2 7.5 40.5 7.5c61.9 0 112-50.1 112-112S461.9 0 400 0s-112 50.1-112 112c0 14.3 2.7 27.9 7.5 40.5L256 192z"/>
</svg>